 http://leetleech.org/images/49034501233648226983.jpg

Screens:
 
http://leetleech.org/images/19089274399991568916.jpg 
http://leetleech.org/images/90560976978052313567.jpg 
http://leetleech.org/images/50003226153135190308.jpg 
http://leetleech.org/images/26215279044221919462.jpg

Alternative:
 
http://www.postimg.com/image/80000/photo-79650.jpg 
http://www.postimg.com/image/80000/photo-79651.jpg 
http://www.postimg.com/image/80000/photo-79652.jpg 
http://www.postimg.com/image/80000/photo-79653.jpg

ScreenCaps:
 
http://www.postimg.com/image/80000/photo-79657.jpg

The Avengers (2012) DVDRip XviD-MAX
Format                                   : AVI
Format/Info                              : Audio Video Interleave
Format profile                           : OpenDML
Format settings                          : rec
File size                                : 2.09 GiB
Duration                                 : 2h 17mn
Overall bit rate                         : 2 183 Kbps
Writing application                      : VirtualDubMod 1.5.10.2 (build 2542/release)
Writing library                          : VirtualDubMod build 2542/release
Original source form                     : MAX TORRENTZ
Copyright                                : SIGISMUNT

Video
ID                                       : 0
Format                                   : MPEG-4 Visual
Format profile                           : Simple@L3
Format settings, BVOP                    : No
Format settings, QPel                    : No
Format settings, GMC                     : No warppoints
Format settings, Matrix                  : Default (H.263)
Codec ID                                 : XVID
Codec ID/Hint                            : XviD
Duration                                 : 2h 17mn
Bit rate                                 : 1 857 Kbps
Width                                    : 720 pixels
Height                                   : 384 pixels
Display aspect ratio                     : 1.85:1
Frame rate                               : 25.000 fps
Color space                              : YUV
Chroma subsampling                       : 4:2:0
Bit depth                                : 8 bits
Scan type                                : Progressive
Compression mode                         : Lossy
Bits/(Pixel*Frame)                       : 0.269
Stream size                              : 1.78 GiB (85%)
Writing library                          : XviD 1.1.2 (UTC 2006-11-01)

Audio
ID                                       : 1
Format                                   : AC-3
Format/Info                              : Audio Coding 3
Mode extension                           : CM (complete main)
Format settings, Endianness              : Big
Codec ID                                 : 2000
Duration                                 : 2h 17mn
Bit rate mode                            : Constant
Bit rate                                 : 320 Kbps
Channel(s)                               : 6 channels
Channel positions                        : Front: L C R, Side: L R, LFE
Sampling rate                            : 48.0 KHz
Bit depth                                : 16 bits
Compression mode                         : Lossy
Stream size                              : 314 MiB (15%)
Alignment                                : Aligned on interleaves
Interleave, duration                     : 64 ms (1.60 video frames)
Interleave, preload duration             : 192 ms

Source: DVD (perfect a/v/sync quality,sample included)
This torrent is not seedbox supported,please seed it to the MAX